<?xml version="1.0" encoding="UTF-8" standalone="no"?>
<!-- Created with Inkscape (http://www.inkscape.org/) -->

<svg
   xmlns:dc="http://purl.org/dc/elements/1.1/"
   xmlns:cc="http://creativecommons.org/ns#"
   xmlns:rdf="http://www.w3.org/1999/02/22-rdf-syntax-ns#"
   xmlns:svg="http://www.w3.org/2000/svg"
   xmlns="http://www.w3.org/2000/svg"
   xmlns:sodipodi="http://sodipodi.sourceforge.net/DTD/sodipodi-0.dtd"
   xmlns:inkscape="http://www.inkscape.org/namespaces/inkscape"
   width="600mm"
   height="200mm"
   viewBox="0 0 600 200"
   version="1.1"
   id="svg89"
   inkscape:version="0.92.2 (5c3e80d, 2017-08-06)"
   sodipodi:docname="drawing2.svg">
  <defs
     id="defs83" />
  <sodipodi:namedview
     id="base"
     pagecolor="#ffffff"
     bordercolor="#666666"
     borderopacity="1.0"
     inkscape:pageopacity="0.0"
     inkscape:pageshadow="2"
     inkscape:zoom="0.35"
     inkscape:cx="1391.2747"
     inkscape:cy="674.28571"
     inkscape:document-units="mm"
     inkscape:current-layer="layer1"
     showgrid="false"
     inkscape:window-width="1366"
     inkscape:window-height="705"
     inkscape:window-x="-8"
     inkscape:window-y="-8"
     inkscape:window-maximized="1" />
  <metadata
     id="metadata86">
    <rdf:RDF>
      <cc:Work
         rdf:about="">
        <dc:format>image/svg+xml</dc:format>
        <dc:type
           rdf:resource="http://purl.org/dc/dcmitype/StillImage" />
        <dc:title></dc:title>
      </cc:Work>
    </rdf:RDF>
  </metadata>
  <g
     inkscape:label="Layer 1"
     inkscape:groupmode="layer"
     id="layer1"
     transform="translate(0,-97)">
    <path
       style="fill:#d40000;stroke-width:0.26458332"
       id="path95"
       d="m 28.508981,118.77442 c 3.194552,-0.5774 6.436974,-0.80656 9.672838,-1.00515 2.73481,-0.14862 5.473634,-0.16831 8.211643,-0.18241 2.427843,-0.1403 4.824537,0.16949 7.234042,0.40316 2.60269,0.3044 5.234881,0.17391 7.834066,0.47378 2.25683,0.3488 4.532595,0.50218 6.812214,0.58854 3.535259,0.41624 7.08665,0.63556 10.628659,0.98736 2.784496,0.2871 5.577845,0.47015 8.375763,0.54571 1.432108,0.31244 2.915084,0.38852 4.342794,0.71371 7.105169,8.31182 -11.424052,6.61932 -14.148218,6.35279 -2.932805,-0.28236 -5.876832,-0.40225 -8.821229,-0.47137 -2.345433,0.1031 -4.656873,-0.27435 -6.978973,-0.53051 -0.346998,-0.0315 -1.149112,-0.17467 -1.536596,0.0122 -0.132615,0.064 -0.401342,0.4193 -0.272942,0.34727 22.075029,-12.38505 8.830913,-8.45538 9.301131,-4.87502 0.763696,2.24968 1.342882,4.52116 1.696519,6.87011 0.422923,4.91267 -0.343819,9.78544 -1.107565,14.62133 -0.726223,4.72932 -1.862344,9.37736 -3.46879,13.88249 -1.088697,2.91168 -2.582069,5.63938 -4.351266,8.18775 -1.261378,1.69326 -2.922485,3.0019 -4.746517,4.04539 -11.453439,6.55228 -7.152203,5.04398 -13.374272,6.98 -6.815378,2.01921 -14.008557,1.72164 -21.017927,1.23278 -6.212887,-0.43707 -12.241884,-1.96607 -17.6970566,-4.98016 -0.4543777,-0.32231 -0.9087554,-0.64462 -1.3631328,-0.96694 0,0 9.3081354,-5.91274 9.3081354,-5.91274 v 0 c 0.411316,0.30098 0.822633,0.60196 1.23395,0.90294 5.239941,2.99008 11.061089,4.43685 17.075413,4.82121 7.058223,0.39319 14.267376,0.52873 21.047599,-1.78802 5.009623,-1.9443 2.55842,-1.1283 -5.463379,3.66296 -0.511154,0.3053 1.050266,-0.56265 1.557369,-0.87464 1.217039,-0.74876 2.322902,-1.64089 3.264091,-2.71892 1.863198,-2.45468 3.424788,-5.11799 4.596236,-7.97439 1.756201,-4.42089 2.940444,-9.03763 3.67579,-13.73779 0.761174,-4.70687 1.560345,-9.44109 1.085162,-14.22784 -0.365549,-2.30875 -0.937535,-4.55269 -1.847244,-6.71247 -0.02238,-0.0798 -0.381617,-1.31931 -0.337812,-1.35034 7.304153,-5.17431 6.649048,-6.55022 11.841154,-5.89486 2.278131,0.28829 4.55341,0.54733 6.855783,0.49513 2.951691,0.0926 5.897774,0.28255 8.840255,0.53371 0.496028,0.0344 0.991513,0.0778 1.488083,0.10309 0.989619,0.0505 1.354706,0.0487 2.313313,-0.004 0.25491,-0.014 0.96479,-0.21741 0.763503,-0.0604 -8.587343,6.69943 -10.740821,3.28427 -8.673171,6.45811 -1.359631,-0.28335 -2.74206,-0.49032 -4.122971,-0.62789 -2.760964,-0.14741 -5.512527,-0.41471 -8.261305,-0.70998 -3.562156,-0.36611 -7.136772,-0.54683 -10.704271,-0.85271 -2.295226,-0.10261 -4.578146,-0.31429 -6.854129,-0.63233 -2.600336,-0.19517 -5.213877,-0.20518 -7.808857,-0.49084 -2.396929,-0.22298 -4.788924,-0.37649 -7.198484,-0.29501 -2.699163,0.003 -5.399649,0.0274 -8.095295,0.17787 -3.250664,0.2039 -6.53693,0.43799 -9.687068,1.31676 0,0 8.882965,-6.83946 8.882965,-6.83946 z"
       inkscape:connector-curvature="0" />
    <path
       style="fill:#d40000;stroke-width:0.26458332"
       id="path97"
       d="m 112.85844,144.08066 c -1.039,0.8783 -2.03159,2.00936 -0.72274,3.10627 0.68537,0.30906 1.15708,0.007 1.78104,-0.25717 0,0 -8.92652,6.82304 -8.92652,6.82304 v 0 c -0.91393,0.0967 -1.69256,-0.0917 -2.40764,-0.70921 -1.44888,-1.60184 -1.49823,-3.06516 -0.14289,-4.7818 0,0 10.41875,-4.18113 10.41875,-4.18113 z"
       inkscape:connector-curvature="0" />
    <path
       style="fill:#d40000;stroke-width:0.26458332"
       id="path99"
       d="m 144.76911,108.61113 c -0.57714,3.69547 -0.43699,7.45148 -0.19444,11.16891 0.35267,4.73115 0.74065,9.4595 1.08295,14.19146 0.38191,4.3602 0.37297,8.74193 0.65462,13.10669 0.25646,2.59861 0.45232,5.20058 0.85819,7.78066 0.33031,1.84736 0.52721,3.71187 0.63049,5.58446 0.066,1.87813 0.0433,3.75853 0.0494,5.63769 0.004,1.22512 0.0235,0.61111 -0.0598,1.84201 0,0 -10.00255,4.966 -10.00255,4.966 v 0 c 0.16481,-1.12976 0.11912,-0.54825 0.1255,-1.74541 0.008,-1.8598 0.006,-3.71962 -0.0508,-5.5788 -0.0677,-1.8425 -0.20963,-3.68179 -0.52085,-5.5012 -0.42287,-2.63049 -0.57838,-5.28232 -0.78217,-7.93832 -0.27234,-4.38218 -0.13686,-8.78465 -0.51858,-13.1637 -0.3605,-4.72022 -0.80312,-9.4332 -1.16368,-14.15345 -0.28744,-3.7335 -0.41617,-7.49462 -0.12504,-11.23208 0,0 10.01669,-4.96492 10.01669,-4.96492 z"
       inkscape:connector-curvature="0" />
    <path
       style="fill:#d40000;stroke-width:0.26458332"
       id="path101"
       d="m 125.40185,112.19151 c 2.40672,1.82873 5.37265,2.78486 8.20878,3.73736 3.81834,1.06732 7.68452,1.95794 11.60021,2.58079 3.07013,0.40089 6.11512,0.93502 9.20282,1.19319 2.65915,0.0466 5.29301,0.32498 7.93845,0.57121 2.5122,0.2294 5.03432,0.30121 7.55555,0.33199 1.97965,0.0244 3.95948,0.0103 5.93918,0.002 0.80252,-0.003 1.60504,-0.005 2.40757,-0.007 0,0 -9.04989,6.57663 -9.04989,6.57663 v 0 c -0.79852,-1.3e-4 -1.59704,-1.8e-4 -2.39555,-0.002 -1.97103,-0.005 -3.9421,-0.0153 -5.91286,-0.05 -2.52096,-0.0709 -5.04198,-0.17623 -7.55196,-0.43381 -2.65381,-0.24702 -5.3074,-0.39923 -7.9672,-0.55592 -3.06232,-0.33763 -6.0893,-0.89802 -9.13841,-1.33272 -3.94677,-0.6966 -7.86027,-1.58561 -11.7056,-2.71977 -2.99172,-1.01256 -6.03364,-2.09077 -8.63768,-3.92058 0,0 9.50659,-5.97134 9.50659,-5.97134 z"
       inkscape:connector-curvature="0" />
    <path
       style="fill:#d40000;stroke-width:0.26458332"
       id="path103"
       d="m 118.56275,175.01921 c 2.61373,-10e-4 5.20822,0.0451 7.80992,0.29901 2.55424,0.27 5.11948,0.39279 7.68615,0.45304 2.40392,0.0854 4.78475,0.46898 7.18785,0.6286 2.7304,0.15046 5.46568,0.16538 8.19942,0.18001 2.95728,0.007 5.91461,0.0116 8.87189,-7.9e-4 2.72062,-0.002 5.44123,-0.009 8.16185,-0.008 2.68078,-0.003 5.36154,-5.3e-4 8.04232,0.003 2.55599,0.004 5.11198,-0.005 7.66793,-0.0186 0.32972,-0.002 0.65945,-0.003 0.98917,-0.005 0,0 -9.01875,6.55249 -9.01875,6.55249 v 0 c -0.32513,-0.002 -0.65026,-0.003 -0.97539,-0.005 -2.53891,-0.0137 -5.07786,-0.023 -7.61681,-0.0186 -2.68389,0.004 -5.36778,0.006 -8.05167,0.004 -2.71598,0.002 -5.43195,-0.004 -8.14793,-0.002 -2.95737,-0.009 -5.91477,0.005 -8.87214,-0.008 -2.75358,-0.0162 -5.50968,-0.0325 -8.25785,-0.22504 -2.39856,-0.17448 -4.78081,-0.54586 -7.18792,-0.57555 -2.56893,-0.0976 -5.13314,-0.26536 -7.69071,-0.53058 -2.62031,-0.21663 -5.24365,-0.20639 -7.87117,-0.13148 0,0 9.07384,-6.59253 9.07384,-6.59253 z"
       inkscape:connector-curvature="0" />
    <path
       style="fill:#d40000;stroke-width:0.26458332"
       id="path107"
       d="m 177.84219,178.21332 c -0.62875,-2.17262 -0.95063,-4.41142 -1.17212,-6.65677 -0.35936,-2.45279 0.0415,-4.84538 0.6328,-7.22206 0.59497,-2.2533 1.25619,-4.4913 1.98707,-6.70445 0.5328,-1.76417 1.08056,-3.52015 1.41017,-5.33528 0.24223,-1.51344 0.26801,-3.04846 0.28605,-4.57747 -0.005,-1.44471 0.0257,-2.89053 -0.0185,-4.33477 0.009,-4.20385 -0.13151,-1.36991 10.18264,-5.52483 0.28025,-0.11289 0.28871,0.53107 0.42112,0.80265 0.56806,1.16513 1.06084,2.36894 1.55798,3.56507 1.29367,3.34958 3.28144,6.36805 5.23143,9.36366 1.67651,2.41476 3.49722,4.76135 5.65241,6.7693 1.22533,1.15042 2.48509,2.26392 3.75834,3.36242 1.13133,0.99253 2.35928,1.86512 3.52822,2.81443 0.76645,0.56812 1.55912,1.05463 2.53596,0.7311 0.22456,-0.0744 0.84963,-0.41513 0.64365,-0.29883 -2.9622,1.67243 -5.94275,3.31218 -8.91412,4.96827 2.20639,-1.54035 3.98772,-3.62729 5.85601,-5.54973 2.82736,-2.80151 5.85223,-5.39053 8.74022,-8.12777 2.56577,-2.44533 5.10302,-4.91904 7.628,-7.40644 1.29752,-1.31491 2.57726,-2.66293 3.67224,-4.15407 0.69642,-1.03382 0.79797,-2.00475 0.2841,-3.11847 -0.80456,-1.14038 -1.58788,-2.35465 -2.59952,-3.32693 9.86313,-5.68311 8.47761,-8.58173 11.41131,-2.40325 1.31805,2.93579 2.18799,6.02584 2.9531,9.14238 0.72292,3.42378 0.83684,6.93001 1.19156,10.40224 0.34109,3.70974 0.44691,7.43417 0.55462,11.15616 0.0672,2.25812 0.10428,4.51691 0.11944,6.77593 0.007,1.53798 0.005,3.07599 0.004,4.61399 -1.5e-4,0.24931 -2.7e-4,0.49863 -5.3e-4,0.74794 0,0 -9.9737,5.08119 -9.9737,5.08119 v 0 c 1.1e-4,-0.24938 2.2e-4,-0.49877 2.6e-4,-0.74815 0.001,-1.54138 0.004,-3.08277 0.0157,-4.62412 0.0183,-2.27655 0.0473,-4.55313 0.0354,-6.82981 -0.0378,-3.69733 -0.14159,-7.39764 -0.51047,-11.07896 -0.33942,-3.42451 -0.46136,-6.87949 -1.13713,-10.2607 -0.72221,-3.04183 -1.5395,-6.06804 -2.9091,-8.89348 -0.58815,-1.17654 -0.38512,-0.85247 -1.06437,-1.90838 -0.41541,-0.64577 -0.79238,-1.15539 -0.78083,-1.16346 9.33355,-6.52897 7.50868,-9.11497 9.7258,-5.83351 0.91914,1.19204 1.87325,2.36164 2.70734,3.6157 0.69772,1.37326 0.90359,2.69633 0.22097,4.13937 -0.92496,1.6913 -2.39246,3.02158 -3.68407,4.43223 -2.5363,2.5397 -5.18674,4.96509 -7.74873,7.4794 -2.8482,2.74341 -5.83492,5.33199 -8.69621,8.06222 -1.85417,1.92979 -3.66659,3.90329 -5.59159,5.76281 -3.46615,1.94961 -6.88144,3.99255 -10.39846,5.84881 -1.09722,0.57911 -2.94088,-0.66639 -3.76219,-1.28023 -1.20083,-0.93243 -2.4112,-1.8541 -3.5602,-2.85031 -1.27776,-1.11024 -2.52557,-2.26159 -3.71765,-3.46237 -2.12784,-2.1478 -3.98333,-4.54882 -5.68461,-7.04522 -1.94518,-3.06851 -3.98072,-6.11992 -5.3648,-9.49375 -3.04416,-6.75862 -3.78812,-2.92459 7.64516,-9.55298 0.0767,-0.0445 -0.11806,0.13223 -0.17709,0.19835 -0.0346,1.45393 0.007,2.90869 -0.007,4.36291 -0.009,1.58205 -0.0207,3.16897 -0.22284,4.74074 -0.28566,1.88176 -0.84145,3.67909 -1.35716,5.50594 -0.74767,2.20241 -1.5011,4.40834 -2.07194,6.66455 -0.63043,2.25262 -1.10219,4.51453 -0.78315,6.86493 0.17702,2.15359 0.42419,4.32688 1.1498,6.37536 0,0 -9.83488,5.4165 -9.83488,5.4165 z"
       inkscape:connector-curvature="0" />
    <path
       style="fill:#d40000;stroke-width:0.26458332"
       id="path109"
       d="m 250.02392,178.38473 c 1.41575,-2.54458 2.63725,-5.1918 3.88357,-7.82195 1.20763,-2.37487 2.28788,-4.80831 3.27785,-7.28066 0.95285,-2.26547 1.89251,-4.53621 2.79139,-6.82373 0.59988,-1.6628 1.2371,-3.30562 1.60113,-5.03881 0.26365,-1.47087 0.28169,-2.96884 0.29821,-4.45845 0.06,-1.49511 -0.28377,-2.95869 -0.69298,-4.38494 -0.51764,-1.54244 -1.25456,-2.99329 -1.94635,-4.46123 -2.2569,-4.05294 -1.01166,-1.22021 9.46229,-6.1559 0.15841,-0.0747 0.15478,0.31421 0.23304,0.47089 0.12904,0.25835 0.72274,1.43677 0.81106,1.61214 1.27579,2.73673 2.79252,5.33919 4.31802,7.94088 1.62029,2.61216 3.15064,5.27441 4.94935,7.76989 1.19833,1.71269 2.35606,3.45516 3.46411,5.22757 0.80211,1.33754 1.3235,2.92319 2.44682,4.03619 2.89546,-2.54008 -0.22646,0.22455 -9.35617,4.8274 -0.19688,0.0993 0.36515,-0.25828 0.50064,-0.43218 0.82913,-1.06405 1.26961,-2.53364 1.7644,-3.75992 1.58912,-4.02155 3.37222,-7.95433 5.2659,-11.84004 1.46489,-3.29742 3.4952,-6.24787 5.84991,-8.96125 1.25727,-1.59764 2.77855,-2.94873 4.15533,-4.4355 2.70876,-2.25859 6.16064,-2.85569 10.23766,-4.27229 0.30464,-0.10585 -0.38878,0.51534 -0.56478,0.78558 -0.64328,0.98762 -0.78719,1.3498 -1.34641,2.44726 -1.82616,3.796 -3.09587,7.80788 -4.12501,11.88199 -0.91464,4.15945 -1.48813,8.37888 -2.07971,12.59281 -0.51977,3.32835 -0.56496,6.69839 -0.80772,10.0502 -0.24879,2.32595 -0.48122,4.65217 -0.59489,6.98906 -0.0957,2.09929 -0.16081,4.19372 0.0961,6.28216 0.07,1.7283 0.66784,3.2881 1.25043,4.88726 0.0998,0.20711 0.19965,0.41423 0.29945,0.62134 0,0 -9.73844,5.51949 -9.73844,5.51949 v 0 c -0.11377,-0.24201 -0.22751,-0.48402 -0.34128,-0.72604 -0.59135,-1.68016 -1.29556,-3.29999 -1.33776,-5.11701 -0.27843,-2.14896 -0.27178,-4.29532 -0.17241,-6.45988 0.10983,-2.36481 0.31899,-4.72155 0.64874,-7.06677 0.35507,-3.37452 0.29911,-6.78986 0.8705,-10.14634 0.61346,-4.25214 1.21338,-8.50599 2.08492,-12.71506 0.9734,-4.10908 2.20535,-8.14708 3.8981,-12.02305 0.16807,-0.37948 1.29109,-3.16545 1.67458,-3.37054 2.12376,-1.13578 12.95675,-8.76922 10.39966,-4.44088 -1.52265,1.38052 -2.94045,2.9159 -4.32523,4.4342 -2.43236,2.62135 -4.60774,5.45147 -6.08507,8.73615 -1.90849,3.83 -3.71776,7.7023 -5.22809,11.70997 -1.48338,4.12549 -5.17956,15.55268 -12.49769,9.80823 -1.02643,-1.28229 -1.73207,-2.78326 -2.491,-4.23232 -1.0794,-1.76136 -2.21465,-3.48914 -3.35508,-5.21157 -1.77422,-2.54725 -3.31126,-5.24175 -4.93486,-7.88562 -1.54409,-2.60792 -3.09146,-5.20913 -4.4616,-7.91453 -0.45825,-0.81827 -0.44931,-0.81307 -0.88504,-1.55539 -0.0935,-0.15936 -0.43688,-0.3728 -0.28375,-0.47624 11.38604,-7.69094 8.01644,-9.07144 10.05762,-4.93752 0.70885,1.52367 1.47984,3.01975 2.03904,4.60868 0.44508,1.51699 0.87191,3.07563 0.85005,4.66909 -0.007,1.54813 -0.01,3.10219 -0.21727,4.6394 -0.30158,1.82334 -0.91739,3.52838 -1.56613,5.25318 -0.89275,2.30703 -1.85814,4.58096 -2.8268,6.85704 -1.02018,2.47914 -1.98462,4.98442 -3.25652,7.35217 -1.28617,2.58169 -2.46486,5.21763 -3.77439,7.78627 0,0 -10.18746,4.60912 -10.18746,4.60912 z"
       inkscape:connector-curvature="0" />
    <path
       style="fill:#d40000;stroke-width:0.26458332"
       id="path111"
       d="m 305.0369,182.09912 c 3.36746,-1.74271 8.83293,-4.60376 -6.35484,3.69024 -0.43675,0.23849 0.82212,-0.56095 1.22762,-0.84938 1.06706,-0.75901 1.30074,-0.9554 2.32672,-1.74799 2.0144,-1.51738 3.78632,-3.28943 5.4556,-5.16986 1.94183,-2.19116 3.36576,-4.76851 4.58684,-7.41263 1.02703,-2.45998 1.70622,-5.03707 2.42639,-7.59705 0.64032,-2.27893 0.76568,-4.64549 0.84304,-6.99765 0.0368,-2.09809 0.0314,-4.19682 0.019,-6.29513 -0.15089,-1.45426 -0.46474,-2.88186 -0.6254,-4.33601 -0.0943,-0.50606 -0.0227,-1.05236 -0.15385,-1.55459 -0.0503,-0.19246 -0.36018,-0.48132 -0.1814,-0.56852 10.30322,-5.02506 8.90487,-7.8175 10.58757,-3.84977 0.83759,2.71696 1.59485,5.45591 2.52968,8.14238 1.4736,4.63469 3.81442,8.86058 6.37603,12.96406 1.86685,2.85135 3.94171,5.56497 6.07669,8.21998 1.30614,1.65909 2.48962,3.40549 3.72531,5.11556 1.13715,1.46005 2.097,3.04653 3.40521,4.36473 0.56756,0.63468 1.26434,1.06088 2.00321,1.45794 0,0 -9.38199,6.07479 -9.38199,6.07479 v 0 c -0.77578,-0.50305 -1.52519,-1.02947 -2.1499,-1.72193 -1.29595,-1.39758 -2.33558,-2.98294 -3.47972,-4.50192 -1.21859,-1.69909 -2.37437,-3.44171 -3.63122,-5.1141 -2.1095,-2.72134 -4.1507,-5.50325 -5.96535,-8.4318 -2.55844,-4.18383 -4.95736,-8.46247 -6.54552,-13.12606 -0.98558,-2.61947 -1.8337,-5.28564 -2.73974,-7.93345 -1.86264,-3.97884 -0.18756,0.0712 9.71288,-5.83527 0.16179,-0.0965 -0.15856,-0.38409 -0.33216,-0.45739 -0.0913,-0.0386 0.10883,1.486 0.0723,1.5692 0.13904,1.49794 0.43873,2.96694 0.63196,4.45739 -0.003,2.11866 0.009,4.23758 -0.0558,6.3556 -0.0717,2.41736 -0.0974,4.86436 -0.70572,7.22092 -0.69543,2.62996 -1.50254,5.23353 -2.44605,7.78626 -1.13628,2.72401 -2.52759,5.3733 -4.37099,7.69047 -1.68069,1.92259 -3.3658,3.83003 -5.41991,5.37349 -4.97912,3.98535 -10.52283,7.17769 -16.22912,10.0267 0,0 8.76255,-7.00921 8.76255,-7.00921 z"
       inkscape:connector-curvature="0" />
    <path
       style="fill:#d40000;stroke-width:0.26458332"
       id="path113"
       d="m 300.79307,168.37113 c 2.32031,0.72954 4.73845,1.01317 7.15195,1.2157 2.23173,0.39232 4.47569,0.6757 6.73645,0.8235 1.60419,-0.0681 3.12536,0.20017 4.68389,0.51522 0,0 -9.2003,6.40736 -9.2003,6.40736 v 0 c -1.5067,-0.30605 -3.02115,-0.35815 -4.55446,-0.44139 -2.24218,-0.20939 -4.46278,-0.56125 -6.69174,-0.87484 -2.45591,-0.25388 -4.87471,-0.68596 -7.29122,-1.18315 0,0 9.16543,-6.4624 9.16543,-6.4624 z"
       inkscape:connector-curvature="0" />
    <path
       style="fill:#d40000;stroke-width:0.26458332"
       id="path115"
       d="m 323.42584,170.4835 c 2.12937,0.0485 4.2595,0.0221 6.38919,0.0252 1.87266,0.0463 3.70665,0.0366 5.54852,-0.29655 1.74914,-0.26868 3.5152,-0.38125 5.28193,-0.44432 1.31882,-0.39593 2.66806,-0.60158 4.03715,-0.70794 0.19261,-0.0669 0.3852,-0.13385 0.57782,-0.20077 0,0 -8.92225,6.79694 -8.92225,6.79694 v 0 c -0.21717,0.0277 -0.43432,0.0554 -0.65149,0.083 -1.35972,0.17792 -2.68658,0.54459 -4.05561,0.63847 -1.74498,0.0906 -3.4861,0.24521 -5.20996,0.53929 -1.86309,0.22908 -3.73722,0.11773 -5.61052,0.13394 -2.15286,0.003 -4.30609,-0.0228 -6.45861,0.0252 0,0 9.07383,-6.59253 9.07383,-6.59253 z"
       inkscape:connector-curvature="0" />
    <path
       style="fill:#d40000;stroke-width:0.26458332"
       id="path117"
       d="m 357.21864,186.89094 c 0.61036,-2.01993 1.07809,-4.10214 1.16414,-6.21468 0.053,-2.03019 -0.47382,-3.97787 -0.98917,-5.91943 -0.78436,-2.44939 -1.54946,-4.89986 -2.24322,-7.37756 -0.52493,-2.33669 -0.95023,-4.70282 -1.28805,-7.07422 -0.30241,-2.83728 -0.70201,-5.66263 -0.99546,-8.50095 -0.35357,-1.78508 -0.5315,-3.61475 -0.94327,-5.38692 -0.34618,-1.32044 -0.77295,-2.61931 -1.23148,-3.90478 -0.35605,-1.15405 -0.81822,-2.26485 -1.26727,-3.38459 3.38018,-1.72599 6.62956,-3.73654 10.14055,-5.17797 0.29946,-0.12295 0.3941,0.51375 0.58685,0.77385 0.27419,0.36998 0.54533,0.74225 0.81394,1.11632 1.1994,1.67029 2.42535,3.31576 3.66159,4.9593 2.98434,4.05109 6.05441,8.03589 9.31945,11.86486 2.54791,2.93896 5.27002,5.71886 8.02486,8.46233 1.58687,1.525 3.14248,3.10222 4.82846,4.51857 0.44979,0.31965 0.90294,1.13452 1.5321,1.18537 0.25408,0.0205 0.81253,-0.60999 0.58859,-0.48823 -3.13526,1.70461 -6.20686,3.52381 -9.31029,5.28572 1.0519,-1.14885 1.09598,-3.11879 1.30138,-4.59569 0.50781,-4.01679 0.42902,-8.06066 0.10533,-12.08633 -0.29374,-3.70569 -0.71133,-7.38551 -1.3644,-11.04403 -0.2589,-1.7516 -0.53031,-3.49128 -0.88919,-5.22507 -0.31001,-1.39949 -0.85698,-2.7133 -1.34453,-4.05349 -0.0804,-0.16265 -0.16084,-0.3253 -0.24125,-0.48795 0,0 9.75453,-5.54515 9.75453,-5.54515 v 0 c 0.0987,0.20189 0.19743,0.40379 0.29614,0.60568 0.48358,1.39828 1.04889,2.76095 1.40116,4.2041 0.34597,1.76327 0.66799,3.51465 0.82275,5.30869 0.54414,3.72538 0.89596,7.464 1.2197,11.21492 0.35848,4.05679 0.53843,8.13045 0.16698,12.19519 -0.16695,1.75373 -0.3478,3.52078 -0.82836,5.21975 -7.28416,4.32862 -8.24958,8.60438 -12.69791,4.20638 -1.63981,-1.49517 -3.20855,-3.07117 -4.75813,-4.659 -2.70547,-2.81302 -5.38676,-5.65138 -7.92271,-8.6197 -3.24628,-3.8668 -6.29838,-7.88573 -9.35633,-11.90211 -1.27254,-1.61975 -2.53799,-3.2472 -3.82241,-4.85741 -0.2821,-0.35366 -0.57042,-0.70246 -0.8649,-1.04588 -0.20579,-0.23999 -0.8864,-0.51156 -0.63555,-0.70396 2.95219,-2.26435 6.26673,-4.01235 9.40011,-6.01853 0.1455,1.16745 0.88641,2.19008 1.12636,3.34176 0.50292,1.31476 0.93726,2.65964 1.29908,4.01955 0.45022,1.82593 0.5347,3.73691 0.92657,5.57855 0.22201,2.82832 0.60651,5.63354 0.97454,8.44497 0.34449,2.32895 0.75086,4.65249 1.2105,6.96015 0.66765,2.48478 1.43581,4.93357 2.27925,7.36354 0.55599,2.03005 1.14961,4.05498 1.15271,6.18208 0.022,2.18788 -0.5134,4.32405 -0.97695,6.45227 0,0 -10.12679,4.80973 -10.12679,4.80973 z"
       inkscape:connector-curvature="0" />
    <path
       style="fill:#d40000;stroke-width:0.26458332"
       id="path119"
       d="m 409.3351,138.67399 c -1.09149,2.50257 -1.57663,5.17734 -1.9077,7.86916 -0.35322,2.27581 -0.71657,4.5456 -0.90538,6.84199 -0.11356,2.01651 -0.47048,4.00685 -0.67429,6.01514 -0.25456,1.82908 -0.16825,3.63509 0.0897,5.45283 0.24474,1.71541 0.64558,3.40765 1.11077,5.07597 0.62582,2.13897 1.86013,3.95963 3.15752,5.73712 1.84994,2.3529 3.80224,4.64781 6.0099,6.67383 1.57319,1.51806 3.50777,2.48826 5.55268,3.19563 2.56093,0.90488 5.19697,1.57048 7.87929,1.99135 2.85763,0.18605 5.67547,-0.31959 8.41433,-1.08996 1.86894,-0.46892 3.67176,-1.13084 5.36284,-2.05725 0.44191,-0.24208 1.7426,-1.01265 1.30368,-0.76515 -2.70512,1.52541 -5.40165,3.06599 -8.10247,4.59899 2.55868,-1.6825 4.87284,-3.6537 6.87494,-5.9667 2.0139,-2.453 3.38106,-5.31014 4.52056,-8.24888 0.71903,-2.18998 1.42558,-4.38232 1.82774,-6.65486 0.24967,-1.79391 0.26655,-3.6092 0.27975,-5.41712 -0.16997,-1.80256 -0.45498,-3.58908 -0.61122,-5.39466 -0.12207,-1.77899 -0.484,-3.52791 -0.68648,-5.29963 -0.31668,-1.70608 -0.63162,-3.41361 -1.00894,-5.10766 -0.57393,-1.85959 -0.91813,-3.77161 -1.34509,-5.66553 -0.21439,-0.8074 -0.38478,-1.62423 -0.5439,-2.44385 0,0 9.87046,-5.25711 9.87046,-5.25711 v 0 c 0.13939,0.80756 0.29025,1.61271 0.50419,2.40472 0.45459,1.88935 0.67535,3.83672 1.342,5.67657 0.39566,1.73325 0.72969,3.47449 1.07159,5.21974 0.17846,1.78661 0.56827,3.53995 0.69881,5.32747 0.1337,1.83771 0.40251,3.65405 0.65252,5.47844 -0.003,1.85872 0,3.72158 -0.2159,5.57091 -0.3166,2.3795 -1.11305,4.62411 -1.83208,6.90589 -1.07921,3.03289 -2.43631,5.98037 -4.35983,8.57959 -1.91998,2.45277 -4.19764,4.51314 -6.76614,6.28027 -5.77104,3.40464 -11.06244,7.38993 -17.60225,8.94992 -2.85393,0.67746 -5.78165,1.13755 -8.71588,0.73066 -2.72465,-0.50683 -5.41308,-1.21254 -8.02706,-2.13694 -2.14477,-0.83856 -4.15563,-1.91464 -5.77673,-3.58885 -2.17384,-2.14297 -4.16896,-4.46721 -6.07705,-6.84785 -1.4296,-1.85214 -2.74482,-3.78803 -3.457,-6.04349 -0.47439,-1.7124 -0.93196,-3.44088 -1.18853,-5.19952 -0.26879,-1.90158 -0.44717,-3.78041 -0.19399,-5.70049 0.19632,-2.00487 0.55742,-3.9914 0.68656,-5.99904 0.18886,-2.32615 0.51557,-4.63343 0.97309,-6.92257 0.31668,-2.70674 0.68649,-5.43034 1.65214,-7.99624 0,0 10.16283,-4.77284 10.16283,-4.77284 z"
       inkscape:connector-curvature="0" />
    <path
       style="fill:#d40000;stroke-width:0.26458332"
       id="path121"
       d="m 460.76311,133.71817 c 2.02129,-0.57152 4.10379,-0.78112 6.19091,-0.9255 2.03303,-0.25438 4.02397,0.0518 6.03562,0.30189 2.22824,0.29952 4.48286,0.21621 6.71071,0.4863 2.37857,0.32227 4.77221,0.4905 7.16946,0.58277 1.73416,0.0577 3.46946,0.0456 5.20425,0.054 2.02462,-0.0878 4.01921,0.30159 6.02657,0.5093 0.89157,0.0726 1.76171,0.21911 2.64909,0.0383 0.17542,-0.0357 0.35568,-0.072 0.51422,-0.15522 0.0869,-0.0456 0.27898,-0.27311 0.19749,-0.21839 -3.14947,2.11513 -6.2724,4.26957 -9.40859,6.40436 -1.1607,0.0338 -2.33251,-0.0246 -3.49779,-0.0284 -2.59993,-0.013 -5.19983,-0.0394 -7.79981,-0.0517 -3.34021,-0.007 -6.68041,0.011 -10.02051,0.0351 -1.95017,0.16354 -3.83416,-0.0747 -5.74945,-0.38502 -1.54564,-0.12122 -3.01675,-0.60163 -4.54253,-0.85173 -0.0523,-0.0183 -1.24497,-0.43749 -1.33799,-0.45896 -0.44112,-0.10185 -0.72316,0.0495 -0.62945,-0.006 9.68894,-5.73656 7.89565,-8.89663 9.78003,-5.36257 1.03791,2.0517 1.86915,4.18757 2.53582,6.38563 0.89826,3.26238 0.81855,6.67974 0.51853,10.01961 -0.196,2.51279 -0.51689,5.00131 -0.92067,7.48736 -0.12282,1.73295 -0.62865,3.41227 -0.8174,5.13198 0.0177,0.14206 -0.0308,0.31032 0.0533,0.42618 0.0468,0.0645 0.15793,-0.0228 0.23754,-0.0256 0.22432,-0.008 0.44892,-0.01 0.67337,-0.006 1.84332,0.031 3.68167,0.10389 5.52307,0.19662 6.70465,0.33264 13.40657,0.73975 20.09992,1.2557 3.44217,0.30693 6.89642,0.3808 10.3142,0.89958 0.34316,0.05 0.68656,0.0983 1.02946,0.14998 0.0912,0.0138 1.05564,0.14915 1.26164,0.23195 4.02828,1.61925 -6.31052,6.76548 -10.1686,6.26134 -3.98859,-0.79779 -8.03978,-1.28437 -12.07841,-1.76137 -4.65955,-0.65466 -9.33572,-1.17982 -14.03154,-1.48131 -1.9857,-0.27324 -3.96875,-0.48573 -5.88275,-1.08488 -0.17089,-0.007 -0.34642,-0.0599 -0.51265,-0.0198 -0.25742,0.0621 -0.43977,0.29523 -0.66331,0.43714 3.11136,-1.76114 6.22046,-3.52628 9.33407,-5.28343 0.11496,-0.0649 -0.24201,0.11579 -0.3379,0.20652 -0.1175,0.11119 -0.19394,0.25898 -0.29091,0.38847 -0.60333,0.8913 -1.28034,1.72251 -1.949,2.56512 -1.06942,1.47141 -2.09018,2.9793 -3.01127,4.54867 -1.80401,3.86455 -2.79376,8.0531 -3.60027,12.22229 -0.777,4.12541 -0.90598,8.3185 -0.51249,12.48913 0.33734,2.48491 1.6797,4.46001 3.21249,6.35044 0.8932,0.8095 1.62441,1.83628 2.69687,2.41751 0.93369,0.80833 2.06957,1.24647 3.1646,1.77287 4.49884,1.18582 9.17308,1.54276 13.79495,1.92081 8.50352,0.81107 17.04054,1.12443 25.57687,1.31374 7.20741,0.0982 14.40802,0.4474 21.61376,0.62837 2.96892,0.0633 6.01631,0.22996 8.91149,-0.55633 0.60804,-0.17077 1.05217,-0.25361 1.60486,-0.57036 0.22283,-0.12771 0.84351,-0.58383 0.61944,-0.45828 -18.49612,10.36406 -10.23811,7.33342 -8.32141,4.34125 0,0 10.1782,-4.74584 10.1782,-4.74584 v 0 c -1.08069,5.20942 -8.18904,6.82461 -12.96651,8.1736 -2.91849,0.43973 -5.85941,0.33085 -8.79735,0.14174 -7.11806,-0.32302 -14.23561,-0.70803 -21.36171,-0.7962 -8.57211,-0.22748 -17.14006,-0.59121 -25.68753,-1.30248 -4.84042,-0.3502 -9.8226,-0.53648 -14.50236,-1.90617 -1.15758,-0.51539 -2.26436,-1.11349 -3.27494,-1.88531 -1.07463,-0.78047 -1.95223,-1.78656 -2.84017,-2.76779 -1.59591,-2.09449 -2.94552,-4.33081 -3.3873,-6.97911 -0.40606,-4.2833 -0.19936,-8.59687 0.52872,-12.8384 0.75843,-4.21837 1.70868,-8.41906 3.23673,-12.43349 0.82512,-1.63169 1.83787,-3.12087 2.80847,-4.66323 0.6605,-0.84746 1.4016,-1.6213 1.92878,-2.55053 0.0986,-0.12162 0.21876,-0.2285 0.29568,-0.36484 0.0911,-0.1615 0.0445,-0.42087 0.20238,-0.51815 3.66215,-2.25668 7.19272,-6.83406 11.56223,-5.59622 1.82476,0.52579 3.73116,0.714 5.60465,0.99106 4.62714,0.44559 9.23231,1.07545 13.8431,1.66184 4.15999,0.46622 8.32493,0.91944 12.46206,1.56193 4.97457,1.00201 -3.01241,7.28843 -8.25182,6.57582 -0.3778,-0.0514 -0.74496,-0.16413 -1.12078,-0.22841 -0.33631,-0.0575 -0.67392,-0.10746 -1.01087,-0.16119 -3.30602,-0.49711 -6.65263,-0.66028 -9.97159,-1.05413 -6.69969,-0.61365 -13.42154,-0.99302 -20.14754,-1.1521 -0.85616,-0.0119 -1.71225,-0.0272 -2.56844,-0.0358 -1.76446,-0.0178 -4.69495,0.44242 -5.13866,-1.88442 0.0582,-1.78147 0.75184,-3.4725 0.83614,-5.26016 0.41089,-2.48185 0.85434,-4.95043 1.0329,-7.4651 0.35404,-3.20255 0.55031,-6.48261 -0.3208,-9.62622 -0.6595,-2.10399 -1.47397,-4.15049 -2.58498,-6.06158 -2.31863,-3.7962 -0.62966,-0.60515 9.17765,-6.7944 0.0766,-0.0483 1.69117,0.64013 1.91635,0.57869 1.50411,0.30233 2.99215,0.676 4.52194,0.83638 1.84709,0.29275 3.69483,0.33801 5.56472,0.29933 3.3115,0.0234 6.6231,0.0388 9.93468,0.0261 2.66046,-0.0178 5.3208,-0.0576 7.98121,-0.0678 1.30429,0.0163 2.72063,-0.0898 3.92186,0.48508 -8.4759,6.3437 -6.06792,7.1983 -12.51958,6.49481 -1.98855,-0.23037 -3.9747,-0.49972 -5.98267,-0.39312 -1.73612,0.002 -3.47274,-0.0221 -5.20655,-0.11781 -2.39763,-0.14418 -4.78735,-0.37193 -7.17384,-0.64315 -2.25168,-0.15794 -4.51371,-0.1876 -6.75431,-0.49046 -1.96582,-0.23544 -3.92472,-0.34672 -5.90081,-0.12266 -2.04105,0.18635 -4.1302,0.42159 -5.99975,1.31947 0,0 8.76255,-7.00921 8.76255,-7.00921 z"
       inkscape:connector-curvature="0" />
    <path
       style="fill:#d40000;stroke-width:0.26458332"
       id="path123"
       d="m 543.93538,106.17036 c -0.46524,3.6114 -1.15953,7.161 -2.1106,10.67442 -1.38835,4.72426 -3.00631,9.37153 -4.31872,14.11818 -1.42743,4.93328 -2.42086,9.97292 -3.65493,14.95454 -0.94046,3.64602 -2.09338,7.23617 -2.91306,10.91245 -0.57012,2.81799 -0.59968,5.70131 -0.63603,8.56448 -0.0763,2.10524 0.065,4.20238 0.53419,6.25687 0.49155,2.28518 1.44151,4.43609 2.42933,6.54305 1.10154,2.34798 2.45232,4.56079 3.79172,6.77632 0.99787,1.78486 2.32211,3.29386 3.81389,4.67306 1.94058,1.87264 4.15131,3.28741 6.46919,4.63586 2.22806,1.18737 4.60399,2.01899 7.0222,2.71934 2.16416,0.54701 4.3946,0.65565 6.61493,0.71989 2.33545,0.0422 4.67156,0.03 7.00728,0.0192 2.34169,-0.30815 4.68966,-0.53139 7.04847,-0.65131 2.12402,-0.118 4.21732,-0.5252 6.33873,-0.72058 0.89918,0.007 1.76368,-0.24112 2.63594,-0.42271 0,0 -8.91318,6.73479 -8.91318,6.73479 v 0 c -0.88715,0.15232 -1.77618,0.28129 -2.67642,0.32963 -2.10931,0.22531 -4.20272,0.61305 -6.32831,0.65784 -2.37064,0.16093 -4.72535,0.47478 -7.09691,0.6084 -2.34593,2e-4 -4.69239,0.0164 -7.03766,-0.0513 -2.28401,-0.10287 -4.56887,-0.31089 -6.77261,-0.96081 -2.45658,-0.78559 -4.87482,-1.68177 -7.12357,-2.96335 -2.37543,-1.40044 -4.62227,-2.92619 -6.64996,-4.80909 -1.5618,-1.45943 -2.95052,-3.05642 -3.98293,-4.94391 -1.31707,-2.26916 -2.64202,-4.53368 -3.78285,-6.89988 -1.03307,-2.16083 -2.09349,-4.34653 -2.63435,-6.69222 -0.53562,-2.14009 -0.66863,-4.34784 -0.57113,-6.5486 0.0357,-2.92597 0.0507,-5.87492 0.53864,-8.76727 0.80542,-3.7355 2.10698,-7.34205 3.08544,-11.03357 1.27995,-4.97649 2.2502,-10.02449 3.64701,-14.97174 1.26344,-4.75493 2.88306,-9.39213 4.29025,-14.10504 0.92861,-3.41091 1.67769,-6.86788 1.87248,-10.40791 0,0 10.06353,-4.94904 10.06353,-4.94904 z"
       inkscape:connector-curvature="0" />
  </g>
</svg>
