<?xml version="1.0" encoding="UTF-8" standalone="no"?>
<!-- Created with Inkscape (http://www.inkscape.org/) -->

<svg
   xmlns:dc="http://purl.org/dc/elements/1.1/"
   xmlns:cc="http://creativecommons.org/ns#"
   xmlns:rdf="http://www.w3.org/1999/02/22-rdf-syntax-ns#"
   xmlns:svg="http://www.w3.org/2000/svg"
   xmlns="http://www.w3.org/2000/svg"
   width="50mm"
   height="47mm"
   version="1.1"
   id="svg8">
  
  <g
     id="layer1">
    <path
       id="path3699"
       d="m 10.07463,135.66276 c 1.893113,-1.49006 3.791303,-2.97323 5.681404,-4.46703 1.787915,-1.46738 3.607946,-2.89084 5.484274,-4.24317 1.253827,-0.97546 2.523537,-1.92824 3.791531,-2.88585 0.942784,-0.66418 1.820429,-1.41409 2.744926,-2.10175 0.525674,-0.48507 1.140645,-0.87169 1.631135,-1.39615 0.045,-0.0481 0.05598,-0.17359 0.119774,-0.15719 0.07896,0.0203 0.07521,0.14468 0.112816,0.21702 12.680376,-6.61547 6.816241,-3.01643 4.070659,-0.89928 -1.070837,0.74629 -1.775047,1.35528 -2.170125,2.61874 -0.287417,1.17524 -0.03562,2.37975 0.242543,3.53144 0.538353,1.43745 1.048515,2.88137 1.464604,4.36039 0.525616,1.82542 1.181124,3.60402 1.837251,5.38436 0.597516,1.66139 1.068067,3.36466 1.743128,4.99715 0.661066,1.63317 1.276932,3.27479 2.020988,4.87269 0.627078,1.25069 0.839901,2.6165 0.964091,3.99319 0.07466,1.28391 0.107503,2.57501 0.0122,3.85805 -0.225864,1.56578 -0.676492,3.03136 -1.485998,4.38938 -0.789723,1.23976 -1.782516,2.30044 -2.862056,3.2866 -2.576171,1.77079 -6.159653,5.12677 -9.762776,4.58024 -1.607618,-0.14572 -2.990062,-0.98078 -4.425182,-1.634 -1.343408,-0.68877 -2.679087,-1.39665 -3.999849,-2.12842 0,0 6.635452,-4.31204 6.635452,-4.31204 v 0 c 1.271217,0.75535 2.579927,1.4549 3.907268,2.10547 1.380132,0.64324 2.748364,1.34435 4.31238,1.34794 0.487405,-0.0319 0.951661,-0.0866 1.415656,-0.25221 0.150833,-0.0538 0.579154,-0.2714 0.441475,-0.18958 -5.390517,3.20353 -8.565975,4.86462 -5.854853,3.43897 1.157438,-0.86757 2.147959,-1.90158 2.98818,-3.0806 0.939814,-1.32578 1.322822,-2.449 1.632027,-4.04014 0.148823,-1.23726 0.06584,-2.4873 0.03865,-3.73085 -0.08256,-1.29372 -0.241379,-2.57875 -0.804841,-3.76515 -0.722106,-1.61739 -1.352553,-3.26422 -2.00955,-4.90894 -0.688229,-1.64028 -1.206706,-3.33913 -1.755545,-5.02959 -0.654338,-1.80047 -1.325486,-3.59345 -1.879483,-5.42898 -0.420611,-1.48581 -0.942156,-2.93226 -1.51705,-4.36359 -0.31075,-1.25731 -0.622848,-2.57091 -0.428196,-3.86954 0.289899,-1.42778 0.695102,-2.31907 1.994192,-3.09828 0.602773,-0.50217 1.211814,-0.93167 1.854445,-1.37773 0.1974,-0.13702 0.388795,-0.28292 0.574905,-0.43493 0.140658,-0.11488 0.241266,-0.28539 0.404503,-0.36499 2.487663,-1.21305 5.018564,-2.33535 7.527846,-3.50303 0.03834,0.11371 0.126359,0.22167 0.115011,0.34114 -0.01916,0.20157 -1.500608,1.52045 -1.782119,1.65023 -0.863547,0.94216 0.112935,-0.0359 -0.834554,0.67181 -0.646158,0.48265 -1.202563,1.10649 -1.920859,1.50099 -1.261894,1.00057 -2.601878,1.88922 -3.828937,2.9311 -1.894765,1.35526 -3.774134,2.72735 -5.559233,4.22684 -1.821832,1.49339 -3.715451,2.90012 -5.537134,4.3946 0,0 -7.344974,2.96467 -7.344974,2.96467 z"
       style="stroke-width:0.26458332" />
    <path
       id="path3701"
       d="m 51.107183,127.26752 c 0.04389,0.93101 0.02832,2.22837 1.072693,2.59784 0.03097,0.005 0.119705,-7.9e-4 0.09291,0.0155 -11.658245,7.12096 -4.548103,5.62202 -7.215402,3.94304 -0.371406,-0.23379 -0.707668,-0.35195 -1.140708,-0.38605 -2.166575,2.21913 4.454003,-5.31746 6.77297,-3.76093 0,0 -6.786356,4.14244 -6.786356,4.14244 v 0 c -2.283534,-2.74166 3.692782,-5.99563 6.538257,-4.89806 0.47326,0.17036 0.896678,0.36532 1.319982,0.63986 0.109802,0.0712 0.426725,0.14446 0.322617,0.22377 -6.242455,4.75519 -4.504775,6.18824 -6.596549,4.39762 -1.024798,-0.8531 -1.341038,-2.02324 -1.446827,-3.31453 0,0 7.066415,-3.60052 7.066415,-3.60052 z"
       style="stroke-width:0.26458332" />
    <path
       id="path3703"
       d="m 59.98823,117.16195 c -1.994014,0.38655 -4.01478,0.61895 -6.036292,0.80376 -2.294652,0.26724 -2.761787,-0.42678 -3.227615,-2.56869 -0.298622,-2.31806 -0.247372,-4.66557 -0.235355,-6.99812 -0.08612,-2.07208 0.113213,-4.13066 0.300006,-6.19045 0.19775,-2.01492 0.225941,-4.041251 0.234855,-6.064239 -0.0163,-4.068712 -0.676735,-2.47628 7.280254,-5.112353 0.272936,-0.09042 0.267729,0.509064 0.392305,0.768199 0.164632,0.342464 0.316754,0.690803 0.475134,1.036204 1.904288,4.186314 3.893105,8.334609 5.896684,12.474759 2.788081,6.24461 6.165,12.185 9.708536,18.02395 1.981184,3.4577 4.20275,6.78938 6.021297,10.34007 0.933768,1.82317 1.123244,2.42438 1.870311,4.30082 1.170516,3.5091 2.026692,7.10179 3.24712,10.59475 0.819843,2.46487 1.916118,4.81652 2.631892,7.31673 0.100822,0.53336 0.256723,0.9497 0.07174,1.49111 -0.07477,0.21884 -0.167148,0.47508 -0.369358,0.5873 -2.500011,1.3874 -4.980292,2.86047 -7.656549,3.86674 -0.455113,0.17112 -0.925849,-0.29848 -1.381374,-0.4685 -0.571193,-0.21319 -1.131774,-0.4538 -1.697659,-0.6807 -4.599028,-1.97457 -8.79129,-4.70785 -12.863201,-7.5858 -2.726348,-1.83768 -4.443092,-3.76711 -6.077558,-6.56539 -0.866034,-1.81693 -1.8849,-3.57061 -2.644719,-5.4376 -0.356026,-0.87481 -0.657064,-1.7712 -1.006928,-2.64849 -0.764468,-1.95562 -1.445069,-3.97762 -1.589971,-6.083 0.08785,-2.63679 1.898692,-4.70892 3.42597,-6.70812 2.204197,-2.73389 4.354426,-5.51871 6.428912,-8.35327 1.572083,-2.29724 2.929483,-4.72836 3.949838,-7.31818 0.64733,-2.03225 1.032833,-4.14668 1.298694,-6.26076 0.509114,-5.633181 -0.09535,-3.23407 7.458988,-7.839266 1.327483,0.605007 2.064819,1.932487 2.88748,3.071757 1.230082,1.889689 2.832383,3.406869 4.61819,4.757459 0.573985,0.25319 1.399347,1.02704 2.114386,0.77931 0.174358,-0.0604 0.564735,-0.46713 0.401466,-0.38115 -6.390412,3.3653 -7.622487,5.60847 -6.010376,2.94996 0.605224,-1.86496 0.554139,-3.86837 0.563097,-5.80867 0.186402,-1.489295 -0.376409,-2.921617 -0.455181,-4.380228 0.143711,-3.033371 -0.0694,-0.685593 7.203281,-4.092403 0.12056,-0.05647 0.232598,0.131996 0.336209,0.215599 0.470196,0.379394 0.917654,0.741931 1.413555,1.095367 1.011071,0.511333 2.244029,1.150165 3.425912,0.985387 0.239363,-0.03337 0.462915,-0.139078 0.694373,-0.208616 2.720038,-1.91022 -1.16459,0.85062 -5.465837,2.925795 -0.286583,0.138263 0.435602,-0.466146 0.622612,-0.723583 0.624361,-0.859483 0.942933,-1.80717 1.254482,-2.80793 0.433719,-1.720136 0.568503,-3.486296 0.459381,-5.251323 0.12315,-3.121731 -0.08138,-0.99935 6.923042,-4.782981 0.08792,-0.04749 1.297091,0.822671 1.402376,0.918479 0.163415,0.148702 0.302324,0.322284 0.453486,0.483426 0.797586,0.850445 1.720349,1.527937 2.822519,1.91098 2.24681,0.07811 10.38799,-5.135515 -5.843781,3.486694 -0.118149,0.06276 0.219761,-0.16433 0.288304,-0.279222 0.205472,-0.344416 0.257984,-0.877586 0.324183,-1.247339 0.150379,-1.736574 0.260347,-3.500474 0.05692,-5.235278 -0.208495,-1.42711 -0.705006,-2.736191 -1.887101,-3.608356 -0.145135,-0.03867 -0.285716,-0.128392 -0.435404,-0.11602 -0.129842,0.01074 -0.460999,0.242991 -0.346596,0.180658 2.169464,-1.182082 4.319852,-2.400134 6.511835,-3.539924 0.14654,-0.0762 -0.26797,0.203491 -0.359648,0.340889 -0.305605,0.458012 -0.305766,0.852575 -0.397079,1.387539 0.07389,2.190107 1.373627,3.948043 2.823117,5.476692 0.6171,0.511471 1.25405,1.142624 2.06801,1.331891 0.44778,0.104119 0.43783,0.02193 0.75108,-0.205179 -2.19429,1.220822 -4.38858,2.441644 -6.582872,3.662468 0.783198,-0.660238 0.605687,-2.009462 0.621178,-2.939417 -0.217657,-3.902411 4.316034,-6.733492 8.282124,-6.274147 3.45717,0.292846 6.94577,0.381133 10.39802,-0.04633 1.17132,-0.145036 2.32863,-0.38672 3.49295,-0.58008 3.83166,-0.91799 7.82055,-1.711767 11.36561,-3.517778 0.47759,-0.243306 1.84195,-1.094335 1.36457,-0.850604 -1.97917,1.010507 -3.91596,2.101967 -5.87394,3.152952 0.0816,-0.170293 0.21942,-0.32376 0.24494,-0.510881 0.14586,-1.069385 -1.60752,-1.696609 -2.31087,-2.04102 -0.24277,-0.09554 -0.99469,-0.411993 -1.27151,-0.442399 -0.1677,-0.01842 -0.33844,0.02312 -0.50201,0.06445 -0.12004,0.03033 -0.44732,0.210987 -0.3405,0.148395 6.68406,-3.916477 4.24972,-4.668822 6.81463,-3.845664 0.44402,0.316167 1.02789,0.696736 1.60914,0.462863 0.19498,-0.07845 0.67901,-0.490874 0.49297,-0.393097 -6.35393,3.339478 -7.4814,5.447096 -5.77158,2.666592 0.1217,-0.422672 0.29051,-0.834543 0.3651,-1.268018 0.46025,-2.67476 -0.17849,-5.962105 -0.70168,-8.599712 -0.50095,-1.527101 -0.69385,-3.299145 -1.64454,-4.651854 -0.37289,-0.530569 -0.97276,-0.991449 -1.45501,-1.406028 -1.99862,-1.086482 -4.29726,-1.970336 -6.60152,-1.88641 -0.14477,0.145976 -0.61507,0.535903 -0.43432,0.437928 2.22042,-1.203598 4.31567,-2.636592 6.57457,-3.76631 0.12893,-0.06448 0.1444,0.254175 0.24838,0.354026 0.2788,0.26774 0.57029,0.526685 0.89194,0.741056 1.46199,0.974381 2.36367,1.287311 4.02088,2.035865 2.46019,0.989275 4.93697,1.93293 7.42686,2.84425 0,0 -6.25454,4.208113 -6.25454,4.208113 v 0 c -2.47635,-0.962586 -4.95146,-1.928344 -7.42703,-2.892951 -1.81309,-0.778333 -4.02549,-1.47863 -5.44697,-2.946575 -2.71392,-2.802652 3.69048,-5.26302 6.75818,-5.599411 2.41932,0.256352 4.81801,1.041072 6.87345,2.350225 0.58775,0.530555 1.15965,0.98467 1.61236,1.64869 0.97935,1.436439 1.11663,3.300317 1.63139,4.909881 0.65714,3.346955 1.26882,6.839098 0.6944,10.237684 -1.25414,3.573616 -0.19648,1.186241 -7.56288,5.461362 -0.80871,0.469339 -2.10319,-0.369715 -2.68998,-0.858126 -0.16724,-0.224893 -0.72111,-0.5003 -0.50171,-0.674682 4.46554,-3.5492 5.37279,-5.445538 9.17125,-3.662344 1.16192,0.613894 2.71317,1.49124 2.8487,2.987128 0.0267,0.294248 -0.10519,0.581469 -0.15778,0.872204 -2.8625,1.842077 -5.54831,4.031599 -8.65959,5.412584 -3.57476,1.586708 -7.45786,2.370653 -11.25244,3.214793 -1.19449,0.190963 -2.38289,0.424913 -3.58346,0.572892 -3.6024,0.444026 -7.21877,0.344974 -10.83656,0.321243 -2.997769,0.604468 -0.44864,0.152432 5.87838,-3.706616 0.11295,-0.06889 -0.27405,0.04429 -0.37511,0.129656 -0.42642,0.360201 -0.39022,1.144929 -0.38152,1.616247 -0.004,1.182278 0.072,2.394926 -0.26961,3.541337 -6.112308,3.520995 -6.244597,5.976003 -10.276476,2.227053 -1.557692,-1.727279 -2.928597,-3.648432 -3.185708,-6.030351 0.01069,-0.296008 0.09477,-2.104017 0.412006,-2.304055 3.612256,-2.277743 5.320258,-5.392312 8.338698,-3.637968 1.22876,1.097603 1.88313,2.516044 2.12396,4.145732 0.29422,1.78467 0.12847,3.608435 0.069,5.410184 -0.0164,0.190241 -0.15975,1.950911 -0.30126,2.041689 -3.942998,2.529319 -4.935868,4.909923 -8.099285,3.879416 -1.136697,-0.52057 -2.121204,-1.270849 -2.984672,-2.176116 -0.321024,-0.286271 -0.389154,-0.394377 -0.769627,-0.567719 -0.127715,-0.05818 -0.25844,-0.137993 -0.398754,-0.135141 -0.07582,0.0016 -0.237921,0.187299 -0.173818,0.14678 6.532181,-4.128883 7.33643,-6.514697 6.33861,-3.800012 -0.04745,1.841702 0.0083,3.693502 -0.44834,5.503066 -1.262422,4.927034 -3.96287,6.954928 -9.749273,8.688843 -1.614872,0.09768 -3.122481,-0.400479 -4.484759,-1.269534 -0.447487,-0.305388 -0.90764,-0.716087 -1.398794,-0.951008 -0.08217,-0.0393 -0.341778,-0.02413 -0.263824,-0.07124 6.573623,-3.974402 9.217787,-3.041346 6.498508,-3.93074 -0.04637,0.08177 -0.133438,0.151489 -0.139105,0.245327 -0.01236,0.204655 0.245716,1.301271 0.260448,1.392674 0.142835,0.88619 0.195826,1.795743 0.1686,2.691812 -0.02215,2.022917 0.01098,4.069984 -0.380283,6.063084 -0.996905,3.42646 -0.123168,1.06615 -7.369212,5.22119 -0.312684,0.1793 -1.086014,-0.0897 -1.338934,-0.19449 -0.625054,-0.25906 -1.006851,-0.54613 -1.575761,-0.91526 -1.780248,-1.45159 -3.424491,-3.01502 -4.704871,-4.9409 -0.25282,-0.32037 -1.659797,-2.35917 -2.217401,-2.21493 -0.07305,0.0189 -0.101343,0.11181 -0.152016,0.16771 2.163183,-1.324827 4.315134,-2.668172 6.489551,-3.974489 0.09821,-0.059 -0.196212,0.131688 -0.255865,0.229505 -0.555752,0.911339 -0.284067,2.113309 -0.480549,3.107224 -0.270532,2.17627 -0.677043,4.33695 -1.256557,6.45246 -1.013941,2.66812 -2.372492,5.15656 -3.95029,7.53636 -2.041893,2.85727 -4.24557,5.60534 -6.408092,8.36916 -1.433174,1.84986 -3.202527,3.75154 -3.51994,6.15454 0.01246,2.03763 0.669155,4.00913 1.370714,5.90328 0.338053,0.87105 0.627896,1.76043 0.971235,2.62941 0.73025,1.84824 1.739622,3.57196 2.620383,5.3486 1.558118,2.59851 3.256881,4.61391 5.766036,6.38478 3.987302,2.92844 8.157204,5.62176 12.818549,7.36477 0.573106,0.1883 1.134136,0.41836 1.719312,0.5649 0.43215,0.10822 1.66351,-0.0893 1.321928,0.19669 -1.805731,1.51179 -4.042937,2.41989 -6.00428,3.72346 -0.163063,0.10838 0.412229,-0.008 0.575895,-0.11559 0.410636,-0.26961 0.217257,-0.79096 0.182523,-1.14375 -0.619768,-2.51761 -1.677893,-4.87394 -2.47736,-7.33474 -1.217525,-3.49474 -2.055204,-7.08729 -3.135921,-10.62454 -0.687404,-1.79625 -0.913427,-2.50279 -1.767891,-4.25281 -1.744477,-3.57284 -3.881445,-6.94686 -5.854607,-10.3926 -3.552396,-5.85669 -6.925823,-11.81893 -9.807472,-18.04026 -2.072195,-4.09912 -4.136135,-8.20184 -6.230731,-12.288356 -0.167984,-0.321056 -0.32445,-0.648404 -0.503954,-0.963163 -0.121669,-0.213347 -0.599321,-0.477975 -0.398682,-0.619622 2.144109,-1.513719 4.580768,-2.565168 6.828708,-3.919908 0.07674,-0.04625 -0.224507,-0.113972 -0.266547,-0.03484 -0.225639,0.424743 0.246796,1.042016 -0.04025,1.44231 -0.03724,2.03945 -0.06055,4.080314 -0.187193,6.116698 -0.218578,2.048571 -0.484352,4.094001 -0.406008,6.159931 1.82e-4,2.2726 -0.05392,4.55755 0.224991,6.81751 0.3972,1.94042 0.714621,1.76657 2.606736,1.61325 2.044885,-0.19149 4.079417,-0.46616 6.089956,-0.89249 0,0 -6.348671,4.75166 -6.348671,4.75166 z"
       style="stroke-width:0.26458332" />
  </g>
</svg>
